<svg id="visual" viewBox="0 0 900 600" width="900" height="600" xmlns="http://www.w3.org/2000/svg" xmlns:xlink="http://www.w3.org/1999/xlink" version="1.1"><rect x="0" y="0" width="900" height="600" fill="#c7b2b2"></rect><path d="M0 389L129 380L257 415L386 433L514 428L643 442L771 378L900 398L900 601L771 601L643 601L514 601L386 601L257 601L129 601L0 601Z" fill="#f5730a"></path><path d="M0 411L129 435L257 459L386 395L514 419L643 475L771 400L900 452L900 601L771 601L643 601L514 601L386 601L257 601L129 601L0 601Z" fill="#da5b09"></path><path d="M0 451L129 444L257 481L386 511L514 497L643 461L771 460L900 452L900 601L771 601L643 601L514 601L386 601L257 601L129 601L0 601Z" fill="#be4407"></path><path d="M0 492L129 485L257 530L386 533L514 532L643 531L771 539L900 505L900 601L771 601L643 601L514 601L386 601L257 601L129 601L0 601Z" fill="#a32d04"></path><path d="M0 565L129 560L257 540L386 570L514 573L643 555L771 558L900 529L900 601L771 601L643 601L514 601L386 601L257 601L129 601L0 601Z" fill="#871400"></path></svg>